<?xml version="1.0" encoding="UTF-8"?>
<svg id="Layer_1" data-name="Layer 1" xmlns="http://www.w3.org/2000/svg" viewBox="0 0 1644.2 316">
  <defs>
    <style>
      .cls-1 {
        fill: #71d4ff;
      }
    </style>
  </defs>
  <path class="cls-1" d="m58.8,251.5c-29.7,0-58.8-19.7-58.8-53.3,0-38.5,29.8-51.8,66.6-56.7l24.5-3.2c14-1.8,18.9-7,18.9-15.4,0-11.9-9.8-22.4-28-22.4-20,0-32.6,11.2-34.3,29.1H3.5c2.8-35.7,31.9-61,76-61,52.2,0,73.2,28,73.2,76v100.5h-39.6v-7c0-5.6.7-10.9,1.8-16.5-9.1,16.9-26.6,29.9-56.1,29.9Zm-15.4-55c0,15.1,11.9,23.5,27,23.5,22.8,0,41-16.8,41-41v-18.6c-3.9,3.5-9.8,5.3-20.3,7.4l-14,2.8c-20,3.8-33.7,10.5-33.7,25.9Z"/>
  <path class="cls-1" d="m180.2,245.2V74.2h42.7v7.7c0,4.9-.4,10.2-1.4,16.8,9.5-17.2,25.6-30.1,52.5-30.1,37.8,0,60.2,26.6,60.2,68.7v107.9h-42.7v-101.6c0-25.2-12.3-41-32.2-41-21,0-36.4,18.6-36.4,42.4v100.2h-42.7Z"/>
  <path class="cls-1" d="m437.8,248.3c-36.4,0-55.7-18.2-55.7-56.4v-83.7h-38.9v-34h38.9V12.6h42.7v61.7h41.7v34h-41.7v77.4c0,17.9,7,28.4,25.2,28.4,4.2,0,8.8-.4,13-1.1v32.2c-4.2,1.4-14.4,3.1-25.2,3.1Z"/>
  <path class="cls-1" d="m479.4,245.2V74.2h42.7v170.9h-42.7v.1h0Z"/>
  <path class="cls-1" d="m551.1,245.2V0h42.7v141.9c3.5-4.9,8.4-10.9,12.3-15.1l49-52.5h54.3l-69.7,72.9,76,98.1h-54.7l-49.7-69-17.5,17.9v51.1l-42.7-.1h0Z"/>
  <path class="cls-1" d="m750.7,315.9l27.3-72.3-66.9-169.4h48l34.7,106c2.1,6,7.7,22.6,7.7,22.6l5.8-21.2,33.9-107.4h44.6l-89.3,241.8h-45.8v-.1Z"/>
  <path class="cls-1" d="m982.6,248.3c-36.4,0-55.7-18.2-55.7-56.4v-83.7h-38.9v-34h38.9V12.5h42.7v61.7h41.8v34h-41.8v77.4c0,17.9,7,28.4,25.2,28.4,4.2,0,8.3-.4,12.6-1.2v32.4c-4.2,1.3-13.9,3.1-24.8,3.1Z"/>
  <path class="cls-1" d="m1025.3,245.2V0h42.7v82c0,4.9-.3,10.2-1.4,16.8,9.5-17.2,25.6-30.1,52.5-30.1,37.8,0,60.2,26.6,60.2,68.7v107.9h-42.7v-101.7c0-25.2-12.3-41-32.2-41-21,0-36.4,18.6-36.4,42.4v100.2h-42.7Z"/>
  <path class="cls-1" d="m1284.6,251.5c-51.1,0-87.2-32.9-87.2-92.1,0-53.9,36.1-90.7,85.8-90.7,52.2,0,82.3,36.4,82.3,92.1v9.5h-124.4c.3,27,17.5,47.6,43.4,47.6,18.6,0,33.6-10.5,36.4-28.4h43.4c-3.4,35-33.5,62-79.7,62Zm-43.8-112.1h80.9c-.7-23.1-15.8-38.9-38.9-38.9s-39.6,16.5-42,38.9Z"/>
  <path class="cls-1" d="m1386.6,245.2V74.2h42.7v13c0,6.3-.3,11.6-1.4,17.9,9.1-19.3,24.5-36.4,50.1-36.4,3.5,0,6.3.4,9.1,1.1v41.3c-2.8-.7-6.7-1.4-12.3-1.4-26.3,0-45.5,13.3-45.5,50.8v84.8l-42.7-.1h0Z"/>
  <path class="cls-1" d="m1550.2,251.5c-29.8,0-58.8-19.6-58.8-53.2,0-38.5,29.8-51.8,66.6-56.7l24.5-3.2c14-1.8,18.9-7,18.9-15.4,0-11.9-9.8-22.4-28-22.4-20,0-32.6,11.2-34.3,29.1h-44.1c2.8-35.7,31.9-61,76-61,52.2,0,73.2,28,73.2,76v100.5h-39.6v-7c0-5.6.7-10.9,1.8-16.5-9.2,16.8-26.7,29.8-56.2,29.8Zm-15.4-55c0,15.1,11.9,23.5,27,23.5,22.8,0,41-16.8,41-41v-18.6c-3.9,3.5-9.8,5.3-20.3,7.4l-14,2.8c-20,3.8-33.7,10.5-33.7,25.9Z"/>
</svg>